<?xml version="1.0" encoding="UTF-8" standalone="no"?>
<svg
   xmlns:dc="http://purl.org/dc/elements/1.1/"
   xmlns:cc="http://creativecommons.org/ns#"
   xmlns:rdf="http://www.w3.org/1999/02/22-rdf-syntax-ns#"
   xmlns:svg="http://www.w3.org/2000/svg"
   xmlns="http://www.w3.org/2000/svg"
   id="svg8"
   version="1.1"
   viewBox="0 0 16.933333 16.933333"
   height="64"
   width="64">
  <defs
     id="defs2" />
  <metadata
     id="metadata5">
    <rdf:RDF>
      <cc:Work
         rdf:about="">
        <dc:format>image/svg+xml</dc:format>
        <dc:type
           rdf:resource="http://purl.org/dc/dcmitype/StillImage" />
        <dc:title></dc:title>
      </cc:Work>
    </rdf:RDF>
  </metadata>
  <g
     transform="translate(0,-280.06666)"
     id="layer1">
    <path
       id="path832"
       d="m 3.5452258,292.28906 c -0.4925879,-0.0608 -1.0426074,-0.2785 -1.4087888,-0.55762 -0.3786674,-0.28864 -0.7874126,-0.8963 -0.7874126,-1.17061 0,-0.0548 0.00512,-0.0996 0.011378,-0.0996 0.00626,0 0.095561,0.0433 0.1984475,0.0962 0.102887,0.0529 0.1965673,0.0962 0.2081791,0.0962 0.01859,0 0.1295389,-0.29202 0.2803319,-0.7378 0.043548,-0.12874 0.8377522,-2.38961 1.3287134,-3.78247 0.1020784,-0.2896 0.1794345,-0.54495 0.1719026,-0.56745 -0.00753,-0.0225 -0.067886,-0.0454 -0.1341212,-0.0508 l -0.1204266,-0.01 v -0.19247 -0.19247 l 0.2378056,-0.0337 c 0.1307927,-0.0185 0.2606077,-0.0457 0.2884781,-0.0603 0.027869,-0.0147 0.1188735,-0.0174 0.2022296,-0.006 8.9215236,-0.0112 0,0 8.9215236,-0.0112 0.06888,-0.03 0.09896,-0.0269 0.204863,0.0215 0.02693,0.0123 0.174858,0.0376 0.328733,0.0562 l 0.27977,0.0338 v 0.19248 0.19246 l -0.158694,0.0162 c -0.08728,0.009 -0.167294,0.026 -0.177805,0.0381 -0.01051,0.0121 0.222925,0.71207 0.518751,1.55561 0.295823,0.84353 0.694364,1.98071 0.885643,2.52707 0.19128,0.54635 0.351569,0.99771 0.356201,1.00302 0.0046,0.005 0.101562,-0.0339 0.215405,-0.0871 0.113842,-0.0532 0.210133,-0.0968 0.213981,-0.0968 0.0038,-6e-5 0.007,0.0447 0.007,0.0995 0,0.13619 -0.172108,0.50068 -0.34249,0.72532 -0.186274,0.2456 -0.476523,0.49404 -0.757804,0.64868 -0.485146,0.26671 -0.8859,0.36506 -1.487587,0.36506 -0.632824,0 -1.016371,-0.1 -1.552536,-0.4047 -0.254686,-0.14507 -0.329101,-0.20752 -0.561935,-0.47191 -0.224163,-0.25454 -0.290327,-0.35415 -0.401638,-0.60469 -0.09091,-0.20463 -0.12416,-0.3104 -0.104619,-0.3328 0.01954,-0.0224 0.09686,-2.5e-4 0.243299,0.0696 0.118061,0.0563 0.218636,0.0979 0.2235,0.0922 0.0049,-0.006 0.118255,-0.3206 0.251982,-0.69993 0.628012,-1.78138 1.173114,-3.33492 1.221226,-3.48048 0.02915,-0.0882 0.06471,-0.18926 0.07901,-0.22454 0.0143,-0.0353 0.06956,-0.19046 0.122821,-0.34484 l 0.09683,-0.28068 h -0.07217 c -8.2520472,-0.0175 0,0 -8.2520472,-0.0175 -0.003,10e-4 0.155952,0.46476 0.3532299,1.02884 0.775226,2.21659 1.4055144,4.00892 1.4126529,4.0171 0.00412,0.004 0.1049536,-0.0366 0.2240686,-0.0917 0.1465261,-0.0679 0.225758,-0.0897 0.2449718,-0.0677 0.019213,0.0221 -0.015165,0.12955 -0.1062945,0.33243 -0.2383868,0.53072 -0.6915935,0.97937 -1.2326645,1.22026 -0.4797747,0.2136 -1.1530408,0.31408 -1.6738654,0.2498 z m 1.0502044,-1.20052 c 0.3595923,-0.0519 0.6782934,-0.12161 0.8662257,-0.18925 0.1505014,-0.0542 0.1511293,-0.0373 -0.019237,-0.51604 -0.069496,-0.19527 -0.3189773,-0.90357 -0.5544035,-1.574 -0.2354257,-0.67044 -0.5376395,-1.52933 -0.6715859,-1.90866 -0.1339463,-0.37932 -0.2519377,-0.71501 -0.2622033,-0.74598 -0.01275,-0.0385 -0.077997,0.11402 -0.2058929,0.48117 -0.1029756,0.29562 -0.4710222,1.34585 -0.817881,2.33385 -0.3468587,0.98801 -0.6336992,1.8158 -0.6374234,1.83953 -0.012268,0.0782 0.4967334,0.21405 1.1402896,0.30436 0.2188835,0.0307 0.8743616,0.0166 1.1621127,-0.0249 z m 9.1072568,-3.6e-4 c 0.591144,-0.0902 0.983852,-0.20325 0.968773,-0.27885 -0.0084,-0.042 -0.884918,-2.55622 -1.368311,-3.9248 -0.130863,-0.37051 -0.246234,-0.69883 -0.256376,-0.72962 -0.01258,-0.0382 -0.06879,0.0893 -0.176844,0.40098 -0.08712,0.25132 -0.455188,1.30141 -0.817927,2.33352 -0.362739,1.03211 -0.6626,1.89599 -0.666359,1.91972 -0.01197,0.0756 0.404218,0.19357 1.028319,0.29157 0.278784,0.0437 0.963455,0.0371 1.288725,-0.0125 z"
       style="stroke-width:0.02995751" />
  </g>
</svg>
