<?xml version="1.0" encoding="UTF-8" standalone="no"?>
<svg
   xmlns:dc="http://purl.org/dc/elements/1.1/"
   xmlns:cc="http://creativecommons.org/ns#"
   xmlns:rdf="http://www.w3.org/1999/02/22-rdf-syntax-ns#"
   xmlns:svg="http://www.w3.org/2000/svg"
   xmlns="http://www.w3.org/2000/svg"
   xmlns:sodipodi="http://sodipodi.sourceforge.net/DTD/sodipodi-0.dtd"
   xmlns:inkscape="http://www.inkscape.org/namespaces/inkscape"
   id="svg8"
   version="1.1"
   viewBox="0 0 16.933333 16.933334"
   height="48"
   width="48"
   sodipodi:docname="user.svg"
   inkscape:version="0.92.4 (5da689c313, 2019-01-14)">
  <sodipodi:namedview
     pagecolor="#ffffff"
     bordercolor="#666666"
     borderopacity="1"
     objecttolerance="10"
     gridtolerance="10"
     guidetolerance="10"
     inkscape:pageopacity="0"
     inkscape:pageshadow="2"
     inkscape:window-width="1842"
     inkscape:window-height="1057"
     id="namedview821"
     showgrid="false"
     inkscape:zoom="13.081475"
     inkscape:cx="24"
     inkscape:cy="24"
     inkscape:window-x="1912"
     inkscape:window-y="-8"
     inkscape:window-maximized="1"
     inkscape:current-layer="svg8" />
  <defs
     id="defs2" />
  <metadata
     id="metadata5">
    <rdf:RDF>
      <cc:Work
         rdf:about="">
        <dc:format>image/svg+xml</dc:format>
        <dc:type
           rdf:resource="http://purl.org/dc/dcmitype/StillImage" />
        <dc:title />
      </cc:Work>
    </rdf:RDF>
  </metadata>
  <rect
     style="fill:#c8c8c8;fill-opacity:1;stroke:none;stroke-width:3.52800012;stroke-linecap:butt;stroke-linejoin:miter;stroke-miterlimit:4;stroke-dasharray:none;stroke-dashoffset:0;stroke-opacity:1;paint-order:normal"
     id="rect825"
     width="16.933334"
     height="16.933334"
     x="0"
     y="-8.5058593e-07"
     ry="0" />
  <g
     transform="translate(0,-280.06666)"
     id="layer1"
     style="fill:#646464;fill-opacity:1">
    <path
       transform="matrix(0.1202925,0,0,0.12162544,-3.0581276,275.35127)"
       id="path834"
       d="m 73.327381,63.410713 c -4.355417,5.745867 -6.817144,12.886542 -7.020725,20.093705 -0.20358,7.207164 1.838051,14.448829 5.697808,20.538732 4.088578,6.45094 10.375156,11.67764 17.764879,13.60715 5.344769,1.39556 11.111277,1.02271 16.291427,-0.89568 5.18015,-1.91839 9.76427,-5.35481 13.19072,-9.68766 3.81137,-4.81959 6.19151,-10.725177 6.98161,-16.818677 0.7901,-6.093499 0.009,-12.361245 -2.06792,-18.144119 -2.63166,-7.327654 -7.52662,-14.03893 -14.3631,-17.764878 -5.81793,-3.170829 -12.835196,-4.008754 -19.276783,-2.456847 -6.842858,1.648581 -12.946033,5.918995 -17.197916,11.528274 z"
       style="fill:#646464;fill-opacity:1;stroke:#000000;stroke-width:0.26458332px;stroke-linecap:butt;stroke-linejoin:miter;stroke-opacity:1" />
    <path
       transform="matrix(0.1202925,0,0,0.12162544,-3.0581276,275.35127)"
       id="path850"
       d="m 78.532985,124.25471 c -12.428005,3.5635 -25.702394,10.77978 -32.384289,18.35246 -6.681895,7.57269 -6.770984,15.5015 12.250472,19.37703 19.021455,3.87554 57.150622,3.69737 76.304812,-0.22269 19.15419,-3.92007 19.33237,-11.58185 12.73999,-19.02056 -6.59237,-7.43872 -19.95631,-14.65524 -32.42885,-18.30795 -12.47253,-3.65271 -24.05413,-3.7418 -36.482135,-0.17829 z"
       style="fill:#646464;fill-opacity:1;stroke:#000000;stroke-width:0.26458332px;stroke-linecap:butt;stroke-linejoin:miter;stroke-opacity:1" />
  </g>
</svg>
